<svg width="30" height="30" viewBox="0 0 30 30" fill="none" xmlns="http://www.w3.org/2000/svg">
<path d="M25.2497 28.7502C26.4094 28.7502 27.3497 27.8099 27.3497 26.6502C27.3497 25.4904 26.4094 24.5502 25.2497 24.5502C24.0899 24.5502 23.1497 25.4904 23.1497 26.6502C23.1497 27.8099 24.0899 28.7502 25.2497 28.7502Z" stroke="#F9FAFB" stroke-width="1.5" stroke-linecap="round" stroke-linejoin="round"/>
<path d="M11.2497 28.7502C12.4094 28.7502 13.3497 27.8099 13.3497 26.6502C13.3497 25.4904 12.4094 24.5502 11.2497 24.5502C10.0899 24.5502 9.14966 25.4904 9.14966 26.6502C9.14966 27.8099 10.0899 28.7502 11.2497 28.7502Z" stroke="#F9FAFB" stroke-width="1.5" stroke-linecap="round" stroke-linejoin="round"/>
<path d="M21.0499 3.55017H28.7499L25.9499 18.9502H19.6499M21.0499 3.55017L19.6499 18.9502M21.0499 3.55017H13M19.6499 18.9502H14.05M13 3.55017H4.94995L7.74995 18.9502H14.05M13 3.55017L14.05 18.9502" stroke="#F9FAFB" stroke-width="1.5" stroke-linecap="round" stroke-linejoin="round"/>
<path d="M4.95 3.55C4.71666 2.61666 3.55 0.75 0.75 0.75" stroke="#F9FAFB" stroke-width="1.5" stroke-linecap="round" stroke-linejoin="round"/>
<path d="M25.95 18.9498H7.74995H5.27303C2.775 18.9498 1.44995 20.0435 1.44995 21.7498C1.44995 23.4561 2.775 24.5498 5.27303 24.5498H25.25" stroke="#F9FAFB" stroke-width="1.5" stroke-linecap="round" stroke-linejoin="round"/>
</svg>
