<svg width="30" height="30" viewBox="0 0 30 30" fill="none" xmlns="http://www.w3.org/2000/svg">
<path d="M14.75 0.75C7.01801 0.75 0.75 7.01801 0.75 14.75C0.75 22.4819 7.01801 28.75 14.75 28.75C22.4819 28.75 28.75 22.4819 28.75 14.75C28.75 7.01801 22.4819 0.75 14.75 0.75Z" stroke="#F9FAFB" stroke-width="1.5" stroke-linecap="round" stroke-linejoin="round"/>
<path d="M3.92944 23.634C3.92944 23.634 7.05007 19.65 14.75 19.65C22.45 19.65 25.5708 23.634 25.5708 23.634" stroke="#F9FAFB" stroke-width="1.5" stroke-linecap="round" stroke-linejoin="round"/>
<path d="M14.75 14.75C17.0697 14.75 18.95 12.8696 18.95 10.55C18.95 8.23039 17.0697 6.34998 14.75 6.34998C12.4304 6.34998 10.55 8.23039 10.55 10.55C10.55 12.8696 12.4304 14.75 14.75 14.75Z" stroke="#F9FAFB" stroke-width="1.5" stroke-linecap="round" stroke-linejoin="round"/>
</svg>
